<mxfile host="65bd71144e">
    <diagram id="2eUTmk7h6-0M79RjcemK" name="Page-1">
        <mxGraphModel dx="1082" dy="1745" grid="1" gridSize="10" guides="1" tooltips="1" connect="1" arrows="1" fold="1" page="1" pageScale="1" pageWidth="1920" pageHeight="1200" math="0" shadow="0">
            <root>
                <mxCell id="0"/>
                <mxCell id="1" parent="0"/>
                <mxCell id="4" value="" style="edgeStyle=none;html=1;" edge="1" parent="1" source="2" target="3">
                    <mxGeometry relative="1" as="geometry"/>
                </mxCell>
                <mxCell id="2" value="开始" style="html=1;dashed=0;whitespace=wrap;shape=mxgraph.dfd.start;fillColor=#ffe6cc;strokeColor=#d79b00;" vertex="1" parent="1">
                    <mxGeometry x="220" y="-90" width="80" height="30" as="geometry"/>
                </mxCell>
                <mxCell id="62" value="" style="edgeStyle=orthogonalEdgeStyle;html=1;" edge="1" parent="1" source="3" target="61">
                    <mxGeometry relative="1" as="geometry"/>
                </mxCell>
                <mxCell id="3" value="查询在院的住院实体" style="shape=process;whiteSpace=wrap;html=1;backgroundOutline=1;dashed=0;strokeColor=#d79b00;fillColor=#ffe6cc;" vertex="1" parent="1">
                    <mxGeometry x="190" y="10" width="140" height="60" as="geometry"/>
                </mxCell>
                <mxCell id="64" value="&amp;gt;=2" style="edgeStyle=orthogonalEdgeStyle;html=1;" edge="1" parent="1" source="61" target="63">
                    <mxGeometry relative="1" as="geometry"/>
                </mxCell>
                <mxCell id="66" value="0" style="edgeStyle=orthogonalEdgeStyle;html=1;entryX=0;entryY=0.5;entryDx=0;entryDy=0;" edge="1" parent="1" source="61" target="67">
                    <mxGeometry relative="1" as="geometry">
                        <mxPoint x="360" y="179.99999999999977" as="targetPoint"/>
                    </mxGeometry>
                </mxCell>
                <mxCell id="71" value="1" style="edgeStyle=orthogonalEdgeStyle;html=1;entryX=0.5;entryY=0;entryDx=0;entryDy=0;" edge="1" parent="1" source="61" target="72">
                    <mxGeometry relative="1" as="geometry">
                        <mxPoint x="260" y="310" as="targetPoint"/>
                    </mxGeometry>
                </mxCell>
                <mxCell id="61" value="数量" style="rhombus;whiteSpace=wrap;html=1;dashed=0;strokeColor=#d79b00;fillColor=#ffe6cc;" vertex="1" parent="1">
                    <mxGeometry x="220" y="140" width="80" height="80" as="geometry"/>
                </mxCell>
                <mxCell id="63" value="异常" style="shape=process;whiteSpace=wrap;html=1;backgroundOutline=1;dashed=0;strokeColor=#B20000;fillColor=#e51400;fontColor=#ffffff;" vertex="1" parent="1">
                    <mxGeometry x="40" y="150" width="120" height="60" as="geometry"/>
                </mxCell>
                <mxCell id="76" value="" style="edgeStyle=orthogonalEdgeStyle;html=1;" edge="1" parent="1" source="67" target="75">
                    <mxGeometry relative="1" as="geometry"/>
                </mxCell>
                <mxCell id="67" value="查询最新住院证" style="shape=process;whiteSpace=wrap;html=1;backgroundOutline=1;dashed=0;strokeColor=#d79b00;fillColor=#ffe6cc;" vertex="1" parent="1">
                    <mxGeometry x="560" y="150" width="120" height="60" as="geometry"/>
                </mxCell>
                <mxCell id="69" value="&lt;span&gt;弱陪护，患者未入院&lt;/span&gt;" style="shape=singleArrow;whiteSpace=wrap;html=1;arrowWidth=0.4;arrowSize=0.4;dashed=0;strokeColor=#d79b00;fillColor=#ffe6cc;" vertex="1" parent="1">
                    <mxGeometry x="370" y="130" width="130" height="45" as="geometry"/>
                </mxCell>
                <mxCell id="72" value="得出目标住院证" style="shape=process;whiteSpace=wrap;html=1;backgroundOutline=1;dashed=0;strokeColor=#d79b00;fillColor=#ffe6cc;" vertex="1" parent="1">
                    <mxGeometry x="200" y="450" width="120" height="60" as="geometry"/>
                </mxCell>
                <mxCell id="74" value="&lt;span&gt;强陪护，患者已入院&lt;/span&gt;" style="shape=singleArrow;whiteSpace=wrap;html=1;arrowWidth=0.4;arrowSize=0.4;dashed=0;strokeColor=#d79b00;fillColor=#ffe6cc;direction=south;horizontal=0;verticalAlign=middle;" vertex="1" parent="1">
                    <mxGeometry x="210" y="270" width="45" height="130" as="geometry"/>
                </mxCell>
                <mxCell id="78" value="作废" style="edgeStyle=orthogonalEdgeStyle;html=1;" edge="1" parent="1" source="75" target="77">
                    <mxGeometry relative="1" as="geometry"/>
                </mxCell>
                <mxCell id="79" value="有效" style="edgeStyle=orthogonalEdgeStyle;html=1;exitX=0.5;exitY=1;exitDx=0;exitDy=0;entryX=1;entryY=0.5;entryDx=0;entryDy=0;" edge="1" parent="1" source="75" target="72">
                    <mxGeometry relative="1" as="geometry"/>
                </mxCell>
                <mxCell id="75" value="状态" style="rhombus;whiteSpace=wrap;html=1;dashed=0;strokeColor=#d79b00;fillColor=#ffe6cc;" vertex="1" parent="1">
                    <mxGeometry x="580" y="280" width="80" height="80" as="geometry"/>
                </mxCell>
                <mxCell id="77" value="异常" style="shape=process;whiteSpace=wrap;html=1;backgroundOutline=1;dashed=0;strokeColor=#B20000;fillColor=#e51400;fontColor=#ffffff;" vertex="1" parent="1">
                    <mxGeometry x="720" y="290" width="120" height="60" as="geometry"/>
                </mxCell>
            </root>
        </mxGraphModel>
    </diagram>
</mxfile>